PathFileType	4	(X/Y/Z)	 s07c0403.trc
DataRate	CameraRate	NumFrames	NumMarkers	Units	OrigDataRate	OrigDataStartFrame	OrigNumFrames
200	200	6	48	mm	200	1	2000
Frame#	Time	racr			lacr			c7			jug			rlel			rdr			llel			ldr			s2			lic			ric			lasi			rasi			rpsi			lpsi			rgt			lgt			rth1			rth2			rth3			rth4			rlfc			rmfc			rsh1			rsh2			rsh3			rsh4			rlmal			rcal			rtoe			rmt5			lth1			lth2			lth4			lth3			llfc			lmfc			lsh1			lsh2			lsh3			lsh4			llmal			lcal			ltoe			lmt5			SBIKE			LBIKE			RBIKE			
		X1	Y1	Z1	X2	Y2	Z2	X3	Y3	Z3	X4	Y4	Z4	X5	Y5	Z5	X6	Y6	Z6	X7	Y7	Z7	X8	Y8	Z8	X9	Y9	Z9	X10	Y10	Z10	X11	Y11	Z11	X12	Y12	Z12	X13	Y13	Z13	X14	Y14	Z14	X15	Y15	Z15	X16	Y16	Z16	X17	Y17	Z17	X18	Y18	Z18	X19	Y19	Z19	X20	Y20	Z20	X21	Y21	Z21	X22	Y22	Z22	X23	Y23	Z23	X24	Y24	Z24	X25	Y25	Z25	X26	Y26	Z26	X27	Y27	Z27	X28	Y28	Z28	X29	Y29	Z29	X30	Y30	Z30	X31	Y31	Z31	X32	Y32	Z32	X33	Y33	Z33	X34	Y34	Z34	X35	Y35	Z35	X36	Y36	Z36	X37	Y37	Z37	X38	Y38	Z38	X39	Y39	Z39	X40	Y40	Z40	X41	Y41	Z41	X42	Y42	Z42	X43	Y43	Z43	X44	Y44	Z44	X45	Y45	Z45	X46	Y46	Z46	X47	Y47	Z47	X48	Y48	Z48	
1	0.0050	455.418866	1427.015852	-84.851307	432.838758	1419.852668	-370.624164	428.564135	1452.100292	-229.138908	387.864288	1316.153327	-225.612224	459.407745	1106.098035	60.237720	687.978271	937.691760	-37.191279	469.189088	1116.324585	-514.744967	695.915056	931.668754	-428.791975	-131.824608	1207.565327	-235.892645	33.668474	1253.955534	-374.339917	37.502756	1233.975781	-81.230220	63.038430	1173.833464	-349.687581	48.957782	1179.238382	-101.779217	-104.373608	1243.170660	-182.833671	-89.349543	1255.055190	-289.581006	-25.213629	1116.012965	-41.326374	-26.478307	1102.473078	-408.872189	112.323584	1043.463091	-40.963711	196.195782	1020.400213	-52.699021	260.495217	964.289810	-51.739127	211.039755	1051.701661	-68.517530	373.049299	878.393287	-86.140137	370.442694	859.586018	-181.092999	330.874555	740.359118	-62.573453	324.590176	652.776788	-81.666653	279.762282	578.709197	-76.877018	340.133039	652.091319	-118.467252	230.434214	452.248580	-78.621822	162.799903	413.281540	-106.186236	451.674682	383.735712	-118.998264	373.505291	351.681476	-48.800446	38.729271	999.771786	-415.990780	112.862949	953.669544	-420.895047	140.332084	976.152318	-411.892399	154.527814	873.010320	-417.141267	257.499355	720.558138	-386.301714	246.140787	705.683099	-287.423574	154.751437	610.102166	-406.094884	108.831186	540.278567	-384.845013	31.655875	494.233962	-394.521551	112.142495	542.714840	-343.282064	-70.606825	405.510725	-392.905111	-152.002634	388.424050	-360.277801	120.394380	291.103254	-354.014946	37.382138	290.565475	-418.938930	-258.554642	966.754959	-232.182572	-75.748032	83.538674	-437.335660	-82.096600	79.272649	-39.777615	
2	0.0100	455.393397	1426.993333	-84.839851	432.822011	1419.881117	-370.593403	428.545793	1452.114471	-229.145847	387.807955	1316.175092	-225.603901	459.402754	1106.089766	60.218798	687.953294	937.648953	-37.221515	469.155559	1116.325311	-514.731139	695.906613	931.660407	-428.773996	-131.824168	1207.572732	-235.919106	33.627937	1253.943294	-374.346035	37.497544	1233.970201	-81.236231	63.021968	1173.837551	-349.712524	48.944483	1179.243040	-101.728161	-104.410959	1243.168036	-182.854878	-89.365497	1255.062876	-289.583134	-25.238750	1116.004515	-41.336498	-26.509372	1102.486308	-408.895177	112.325509	1043.440375	-40.938251	196.158823	1020.384417	-52.681429	260.451776	964.267292	-51.723639	211.045244	1051.686839	-68.531825	372.993463	878.377899	-86.132018	370.379075	859.581870	-181.071007	330.834389	740.339865	-62.581535	324.555709	652.754820	-81.680728	279.712141	578.705932	-76.889560	340.083172	652.064150	-118.482210	230.392422	452.202001	-78.620279	162.769539	413.239499	-106.201077	451.645890	383.797432	-119.002293	373.493169	351.719327	-48.792734	38.694693	999.780867	-416.007558	112.840003	953.671153	-420.904973	140.309469	976.142489	-411.910869	154.494211	872.996740	-417.184212	257.459241	720.559935	-386.344412	246.151139	705.671065	-287.477030	154.712964	610.090325	-406.141576	108.799663	540.265885	-384.871698	31.623942	494.164194	-394.574659	112.153316	542.713534	-343.326532	-70.627285	405.494666	-392.907760	-152.005308	388.395514	-360.278845	120.395820	291.131416	-354.024841	37.372095	290.582174	-418.956692	-258.556745	966.759885	-232.201004	-75.752193	83.524492	-437.338668	-82.097168	79.196121	-39.773523	
3	0.0150	455.360511	1427.007948	-84.837188	432.800461	1419.884930	-370.580600	428.527285	1452.124997	-229.137110	387.790429	1316.186962	-225.621952	459.386546	1106.097037	60.197460	687.949138	937.634306	-37.240002	469.151370	1116.293007	-514.695992	695.907099	931.652458	-428.753750	-131.851839	1207.575518	-235.910913	33.600700	1253.937212	-374.332339	37.456046	1233.983835	-81.245013	63.005532	1173.835231	-349.707676	48.897877	1179.247345	-101.747647	-104.415563	1243.159469	-182.868293	-89.399612	1255.067783	-289.580361	-25.283614	1115.998573	-41.337624	-26.532484	1102.493832	-408.893278	112.277239	1043.420215	-40.925708	196.112044	1020.370841	-52.666129	260.410590	964.231735	-51.704712	210.995352	1051.671236	-68.497025	372.940681	878.352225	-86.114706	370.316751	859.558041	-181.046749	330.762180	740.296649	-62.565991	324.482152	652.726940	-81.690384	279.642490	578.662038	-76.884139	340.035213	652.031139	-118.478954	230.335578	452.157736	-78.633948	162.716200	413.144252	-106.169840	451.618435	383.838137	-119.017726	373.466661	351.733608	-48.800322	38.656592	999.794971	-416.023287	112.816468	953.683623	-420.919676	140.270932	976.149589	-411.923630	154.463912	873.013752	-417.221340	257.421501	720.545548	-386.391414	246.120427	705.658308	-287.519492	154.666311	610.082178	-406.170481	108.775543	540.246524	-384.887906	31.591978	494.143036	-394.584333	112.112267	542.647777	-343.351380	-70.653505	405.453777	-392.926410	-152.035020	388.357595	-360.288070	120.383473	291.115573	-354.022521	37.371483	290.562971	-418.959358	-258.554602	966.755194	-232.192806	-75.760992	83.517319	-437.335415	-82.108773	79.211030	-39.765883	
4	0.0200	455.347751	1427.001410	-84.822243	433.119469	1418.362628	-364.285657	428.428437	1450.779369	-223.259445	387.732556	1316.208119	-225.600906	459.288716	1106.780425	60.689897	687.927510	937.638488	-37.255853	469.292560	1116.545978	-515.221054	695.914441	931.624056	-428.750552	-131.877377	1207.563267	-235.923496	27.839908	1248.484302	-359.389354	36.927218	1234.123573	-81.079139	62.957195	1173.843930	-349.708141	48.850570	1179.264371	-101.712261	-104.476851	1243.181538	-182.856082	-89.407293	1255.063308	-289.579232	-25.329595	1116.000679	-41.342687	-26.567250	1102.495325	-408.902988	112.250268	1043.397051	-40.900132	196.429226	1021.362671	-52.542729	260.366463	964.233691	-51.690975	210.861220	1051.703331	-68.485166	373.042463	878.234523	-86.042674	368.278772	859.492857	-181.784792	330.700269	740.266878	-62.556763	324.358789	652.664997	-81.693010	279.591280	578.633782	-76.886348	339.970236	651.874936	-118.539234	229.830632	452.714588	-78.221306	162.717572	413.299325	-106.226955	451.587292	383.890975	-118.999978	373.449017	351.773313	-48.794999	38.929719	999.803214	-415.262465	113.236612	952.622515	-420.027648	140.228829	976.207393	-412.022322	154.426311	873.008296	-417.252061	257.370137	720.534133	-386.430660	246.067463	705.658909	-287.537380	154.742118	610.028890	-406.216918	108.804951	540.142819	-384.959509	31.576578	494.158820	-394.646622	113.296384	542.730832	-343.246793	-70.712137	405.701885	-393.355069	-152.047080	388.320936	-360.294987	120.380836	291.119103	-354.031660	37.365842	290.555429	-418.970920	-258.665142	966.803311	-232.711316	-75.765402	83.511689	-437.341744	-82.090944	79.202523	-39.779379	
5	0.0250	455.322675	1426.715382	-84.864943	432.963564	1417.090980	-361.256402	428.307777	1449.970779	-220.539536	387.722782	1316.259966	-225.601437	459.269715	1106.652434	60.574863	688.121647	937.389896	-37.125055	471.848387	1114.924737	-511.331134	696.216682	929.045462	-422.800736	-131.827937	1207.568341	-236.001371	27.823436	1248.181372	-359.465834	36.856614	1234.095573	-81.002693	63.061612	1173.239550	-349.835885	48.828406	1179.226952	-101.706711	-104.522982	1243.242998	-182.961450	-89.335432	1255.066026	-289.732227	-25.146670	1115.476630	-41.521578	-23.865088	1100.497904	-403.455019	112.181274	1043.376033	-40.825957	196.365410	1021.370153	-52.486824	260.293998	964.254838	-51.637935	210.708841	1051.524470	-68.643565	373.044401	878.317828	-86.028707	367.899961	858.712968	-180.796844	330.787972	739.884850	-62.737378	324.299677	652.095099	-81.805039	279.695202	578.186861	-77.099617	340.011568	651.366907	-118.736697	229.551473	452.853285	-77.852142	162.787733	413.310010	-106.035902	451.438673	384.124313	-118.728871	373.591496	351.404573	-48.892349	41.564741	997.714857	-410.620251	113.235911	952.621576	-420.016471	140.166505	976.053769	-412.002688	154.549960	872.641003	-417.361153	257.531115	720.257941	-386.287000	246.211501	705.241930	-287.638711	154.939954	609.781316	-406.077557	109.034094	539.742652	-384.915660	31.921697	493.597683	-394.047954	126.689578	544.275631	-337.788042	-70.611589	405.458795	-393.112688	-151.926014	388.500739	-360.553516	123.002145	288.177459	-350.031489	41.045835	285.862070	-412.798433	-258.633240	966.703460	-232.835251	-75.596197	84.032758	-437.027016	-81.904686	78.616406	-39.904048	
6	0.0300	455.264012	1427.129144	-84.734584	433.236718	1416.080566	-359.329591	429.868812	1449.781701	-219.815424	387.688080	1316.304998	-225.572543	459.153461	1106.608918	60.510880	687.907809	937.702115	-37.283413	472.425895	1114.288955	-508.626153	696.142459	928.716384	-422.311436	-131.792773	1207.543808	-236.073446	27.806979	1248.072666	-359.509812	36.785793	1234.157691	-81.023370	62.918655	1173.960301	-349.686264	48.778485	1179.239512	-101.722228	-104.669105	1243.256218	-182.976404	-89.273681	1255.062386	-289.777380	-25.461165	1116.204549	-41.314230	-23.708871	1099.513972	-400.440677	112.126279	1043.352141	-40.815801	196.317378	1021.333877	-52.488603	260.255522	964.240863	-51.607384	210.630524	1051.451806	-68.717608	373.029264	878.316779	-85.963577	367.859030	858.482537	-180.580204	330.415389	740.401660	-62.477342	331.156174	651.771006	-75.731113	279.286134	578.754469	-76.855217	344.271502	651.182070	-112.821565	229.747466	452.639228	-78.179919	162.793266	413.082702	-106.034531	451.343632	384.187655	-118.748752	373.246153	351.974714	-48.743616	41.719402	996.577490	-407.597631	113.211991	952.628934	-420.004243	141.729067	973.711989	-407.288234	157.147824	869.618418	-409.722345	260.700290	717.278820	-379.718458	245.819434	705.843978	-287.498922	163.711558	607.824613	-399.593394	113.029549	537.593073	-379.166653	31.558039	494.014265	-394.534246	125.404037	542.830273	-336.974664	-70.707731	405.352556	-392.967027	-152.135300	388.312550	-360.364102	123.276958	285.927633	-346.029330	40.230219	284.744729	-410.645000	-258.619986	966.784498	-232.723483	-75.666596	83.355029	-437.009718	-82.319590	79.371954	-39.890880	
